<?xml version="1.0" standalone="no"?><!DOCTYPE svg PUBLIC "-//W3C//DTD SVG 1.1//EN" "http://www.w3.org/Graphics/SVG/1.1/DTD/svg11.dtd"><svg t="1698588392361" class="icon" viewBox="0 0 1025 1024" version="1.1" xmlns="http://www.w3.org/2000/svg" p-id="1038" data-spm-anchor-id="a313x.manage_type_myprojects.0.i7.55fe3a81bI3um2" xmlns:xlink="http://www.w3.org/1999/xlink" width="200.1953125" height="200"><path d="M401.271618 64.685719a335.31276 335.31276 0 1 1-126.692351 24.641081A335.55533 335.55533 0 0 1 401.271618 64.685719m0-64.685365a399.967803 399.967803 0 0 0-283.736289 117.535329c-156.659868 156.659868-156.659868 410.772281 0 567.472577a401.251404 401.251404 0 0 0 567.472577 0c156.659868-156.659868 156.659868-410.772281 0-567.472577A399.988018 399.988018 0 0 0 401.271618 0.000354z" fill="#8a8a8a" p-id="1039"></path><path d="M625.598272 670.114812m7.14679-7.14679l31.445879-31.445879q7.146791-7.146791 14.293581 0l343.789217 343.789217q7.146791 7.146791 0 14.293581l-31.445878 31.445879q-7.146791 7.146791-14.293582 0l-343.789217-343.789217q-7.146791-7.146791 0-14.293581Z" fill="#8a8a8a" p-id="1040"></path></svg>